<?xml version="1.0" encoding="utf-8"?>
<svg width="1080" height="1080" viewBox="0 0 1080 1080" fill="none" xmlns="http://www.w3.org/2000/svg">
  <defs>
    <clipPath id="clip_path_1">
      <rect width="1080" height="1080" />
    </clipPath>
    <filter color-interpolation-filters="sRGB" x="-619.42" y="-764.337" width="621.42" height="766.337" id="filter_2">
      <feFlood flood-opacity="0" result="BackgroundImageFix_1" />
      <feColorMatrix type="matrix" values="0 0 0 0 0 0 0 0 0 0 0 0 0 0 0 0 0 0 1 0" in="SourceAlpha" />
      <feOffset dx="0" dy="4" />
      <feGaussianBlur stdDeviation="25" />
      <feColorMatrix type="matrix" values="0 0 0 0 0 0 0 0 0 0 0 0 0 0 0 0 0 0 0.624 0" />
      <feBlend mode="normal" in2="BackgroundImageFix_1" result="Shadow_2" />
      <feBlend mode="normal" in="SourceGraphic" in2="Shadow_2" result="Shape_3" />
    </filter>
  </defs>
  <g clip-path="url(#clip_path_1)">
    <rect width="1080" height="1080" />
    <g id="Group" transform="translate(0 -3)">
      <path id="Rectangle" d="M877.43 0C932.114 0 976.43 44.3164 976.43 99L976.43 890.345C976.43 945.029 932.114 989.345 877.43 989.345L99 989.345C44.3164 989.345 0 945.029 0 890.345L0 99C0 44.3164 44.3164 0 99 0L877.43 0Z" fill="#004D98" fill-opacity="0.549" transform="translate(103.57 96.655)" />
      <path id="Rectangle" d="M877.43 0C932.114 0 976.43 44.3164 976.43 99L976.43 890.345C976.43 945.029 932.114 989.345 877.43 989.345L99 989.345C44.3164 989.345 0 945.029 0 890.345L0 99C0 44.3164 44.3164 0 99 0L877.43 0Z" fill="#004D98" fill-opacity="0.871" />
      <path id="path15" d="M404.967 205.722C400.732 198.575 395.346 192.281 388.813 186.841C382.692 181.667 375.357 177.476 366.806 174.267C339.817 164.138 290.477 163.82 263.534 174.068C250.347 178.934 240.579 185.624 234.23 194.139C232.99 195.801 231.867 197.51 230.86 199.266C224.002 211.219 222.926 235.479 229.101 247.783C236.222 260.641 260.888 275.88 279.286 282.45C292.229 287.073 307.614 291.208 325.441 294.857C325.441 294.857 386.981 307.995 386.981 307.995C428.496 316.753 464.028 328.309 493.578 342.663C523.127 357.016 547.303 373.924 566.107 393.387C584.911 412.606 598.709 434.258 607.5 458.343C616.536 482.428 621.176 508.703 621.42 537.167C621.176 586.309 608.843 627.91 584.422 661.971C560.002 696.029 525.08 721.938 479.658 739.698C434.479 757.458 380.143 766.337 316.649 766.337C251.446 766.337 194.546 756.728 145.949 737.509C97.5955 718.29 59.9876 688.731 33.1248 648.833C18.892 627.368 8.42912 602.705 1.73648 574.842C-8.64842 531.606 29.0875 495.076 73.8123 495.372C73.8123 495.372 161.97 495.956 161.97 495.956C175.732 496.047 187.1 507.35 190.144 520.705C192.85 532.575 197.19 542.975 203.459 552.493C213.716 568.063 228.124 579.862 246.684 587.89C265.488 595.919 287.833 599.933 313.719 599.933C335.453 599.933 353.647 597.257 368.299 591.904C382.952 586.553 394.063 579.132 401.634 569.645C409.204 560.156 413.111 549.33 413.355 537.167C413.111 525.732 409.326 515.758 401.999 507.242C394.918 498.484 383.196 490.7 366.834 483.888C350.472 476.832 328.372 470.263 300.532 464.182C300.532 464.182 225.804 448.125 225.804 448.125C159.38 433.771 106.998 409.808 68.6571 376.235C30.5606 342.419 11.6346 296.317 11.8792 237.93C11.6345 190.49 24.3336 149.01 49.9753 113.491C75.8614 77.7286 111.638 49.8728 157.305 29.9237C203.215 9.97453 255.842 0 315.185 0C375.748 0 428.13 10.0965 472.332 30.2886C516.533 50.4809 550.6 78.945 574.532 115.681C588.136 136.214 597.951 158.711 603.978 183.174C612.04 215.9 583.678 243.769 549.773 243.769C549.773 243.769 456.466 243.769 456.466 243.769C434.275 243.769 416.153 224.594 404.968 205.723C404.968 205.723 404.967 205.722 404.967 205.722Z" fill="#FFFFFF" fill-rule="evenodd" filter="url(#filter_2)" transform="translate(172.617 110.463)" />
    </g>
  </g>
</svg>